<?xml version="1.0"?>
<svg width="500" height="500" xmlns="http://www.w3.org/2000/svg" xmlns:svg="http://www.w3.org/2000/svg">
 <g class="layer">
  <title>Layer 1</title>
  <g id="svg_14">
   <path d="m375.05,73.07c-32.92,-36.74 -46.4,-44.01 -84.23,-44.43l-193.55,0c-24.83,0 -45.03,20.21 -45.03,45.13l0,363.63c0,24.92 20.2,45.13 45.03,45.13l290.26,0c24.84,0 45.05,-20.21 45.05,-45.13l0.03,-271.65c-0.05,-28.81 0.56,-34.63 -20.9,-55.21l-36.64,-37.48l-0.01,0.01l-0.01,0z" fill="#f0f0f0" id="svg_13"/>
   <path d="m390.2,61.9c-32.92,-36.74 -46.4,-44.01 -84.23,-44.43l-193.55,0c-24.83,0 -45.03,20.21 -45.03,45.13l0,363.63c0,24.92 20.2,45.13 45.03,45.13l290.26,0c24.84,0 45.05,-20.21 45.05,-45.13l0.03,-271.65c-0.05,-28.81 0.56,-34.63 -20.9,-55.21l-36.64,-37.48l-0.01,0.01l-0.01,0z" fill="#ffffff" id="svg_12"/>
   <path d="m378.47,76.09c-30.3,-34.02 -42.7,-40.76 -77.52,-41.15l-178.14,0c-22.85,0 -41.44,18.72 -41.44,41.8l0,336.73c0,23.08 18.59,41.8 41.44,41.8l267.14,0c22.86,0 41.47,-18.72 41.47,-41.8l0.02,-251.56c-0.05,-26.68 0.52,-32.07 -19.24,-51.13l-33.72,-34.7l-0.01,0.01z" fill="#669df6" id="svg_35"/>
   <g id="svg_20">
    <g id="svg_19">
     <g id="svg_4">
      <path d="m353.57,163.94c-27.77,0 -50.27,-23.19 -50.27,-51.93l0,-55.39c0,-3.72 -2.91,-6.73 -6.5,-6.73l-161.51,0c-20.71,0 -37.57,17.39 -37.57,38.83l0,312.79c0,21.43 16.86,38.83 37.57,38.83l242.2,0c20.72,0 37.59,-17.39 37.59,-38.83l0,-230.82c0,-3.72 -2.9,-6.73 -6.5,-6.73l-55.02,0l0.01,-0.02z" fill="#ffffff" id="svg_6"/>
      <path d="m353.57,137.62l45,0c2.62,0 5,-1.64 6,-4.17c1,-2.5 0.44,-5.41 -1.43,-7.32c-16.44,-16.91 -46.98,-48.32 -63.36,-65.05c-1.86,-1.91 -4.65,-2.47 -7.07,-1.42c-2.41,1.04 -3.98,3.48 -3.98,6.2l0,46.14c0.01,14.06 11.25,25.62 24.85,25.62l-0.01,0z" fill="#ffffff" id="svg_7"/>
     </g>
    </g>
   </g>
  </g>
  <path class="puchipuchi_een" d="m136,253.38c0,-8.69 7.11,-15.8 15.8,-15.8l15.8,0c18.64,0 34.84,10.98 49.85,26.23l-19.83,24.88c-10.59,-11.3 -21.01,-19.51 -30.02,-19.51l-15.8,0c-8.69,0 -15.8,-7.11 -15.8,-15.8zm165.89,0l17.14,0l-4.58,4.66c-6.16,6.16 -6.16,16.11 0,22.28s16.11,6.24 22.28,0l31.6,-31.6c6.24,-6.16 6.24,-16.11 0,-22.28l-31.6,-31.6c-6.16,-6.16 -16.11,-6.16 -22.28,0s-6.16,16.11 0,22.28l4.58,4.66l-17.14,0c-31.36,0 -55.85,31.2 -79.55,61.38c-18.17,23.07 -38.71,49.21 -54.74,49.21l-15.8,0c-8.69,0 -15.8,7.11 -15.8,15.8s7.11,15.8 15.8,15.8l15.8,0c31.36,0 55.85,-31.2 79.55,-61.38c18.17,-23.07 38.71,-49.21 54.74,-49.21zm34.84,67.86c-6.16,-6.24 -16.11,-6.24 -22.28,0s-6.16,16.11 0,22.28l4.58,4.66l-17.14,0c-12.72,0 -28.2,-16.43 -43.13,-34.68l-20.38,24.88c18.88,22.51 39.1,41.39 63.51,41.39l17.14,0l-4.58,4.66c-6.16,6.16 -6.16,16.11 0,22.28s16.11,6.16 22.28,0l31.6,-31.6c6.24,-6.16 6.24,-16.11 0,-22.28l-31.6,-31.6z" fill="#669df6" id="svg_1"/>
 </g>
</svg>