<?xml version="1.0"?>
<svg width="500" height="500" xmlns="http://www.w3.org/2000/svg" xmlns:svg="http://www.w3.org/2000/svg">
 <g class="layer">
  <title>Layer 1</title>
  <path class="s0" d="m500.122735,91.924604l0,316.128658c0,50.5898 -41.160003,91.534385 -91.550007,91.534385l-316.200025,0c-50.390004,0 -91.450007,-41.144901 -91.450007,-91.534385l0,-316.128658c0,-50.5898 40.960003,-91.534385 91.450007,-91.534385l316.200025,0c50.390004,0 91.550007,41.044744 91.550007,91.534385z" fill="#669df6" id="svg_5"/>
  <g id="svg_20">
   <rect fill="#ffffff" height="24.426571" id="svg_14" stroke-dasharray="null" stroke-linecap="null" stroke-linejoin="null" stroke-width="null" width="70.219196" x="351.144484" y="286.805894"/>
   <g id="svg_19">
    <g id="svg_4">
     <path d="m298.256593,180.33424c-23.836772,0 -43.151205,-19.916928 -43.151205,-44.579426l0,-47.557181c0,-3.18787 -2.492188,-5.774385 -5.579413,-5.774385l-138.638285,0c-17.781316,0 -32.251396,14.925012 -32.251396,33.327705l0,268.498093c0,18.402683 14.47007,33.327705 32.251396,33.327705l207.915429,0c17.788319,0 32.265392,-14.925012 32.265392,-33.327705l0,-198.140421c0,-3.18787 -2.485185,-5.774385 -5.579413,-5.774385l-47.232506,0z" fill="#ffffff" id="svg_6"/>
     <path d="m298.256593,157.736606l38.63587,0c2.247168,0 4.284322,-1.405558 5.145378,-3.571862c0.861066,-2.159056 0.37803,-4.644142 -1.225089,-6.288797c-14.11305,-14.519287 -40.336993,-41.471252 -54.394038,-55.838385c-1.603119,-1.637407 -3.9903,-2.115579 -6.069452,-1.217186c-2.065156,0.891156 -3.416252,2.99225 -3.416252,5.317945l0,39.616492c0.007003,12.063182 9.660713,21.981793 21.323585,21.981793z" fill="#ffffff" id="svg_7"/>
    </g>
    <polygon fill="#669df6" id="svg_1" points="296.89266204833984,354.8000183105469 312.83959197998047,337.93023681640625 286.4594039916992,311.22479248046875 351.4932174682617,311.22479248046875 351.4932174682617,286.8228759765625 289.90193939208984,286.8228759765625 312.83959197998047,263.6036682128906 296.89266204833984,246.73365783691406 243.5141372680664,300.7659606933594 "/>
   </g>
  </g>
 </g>
</svg>